# xmcd
#
# Track frame offsets: 
#        150
#        11720
#        23545
#        34747
#        45545
#        57967
#        71660
#        87880
#        103452
#        116842
#        130497
#        142115
#        155752
#        168740
#        182460
#        194270
#        208847
#        222217
#        234632
#        245197
#        258290
#        272462
#        289615
#        301727
#
# Disc length: 4320 seconds
#
# Revision: 1
# Processed by: cddbd v1.5.1PL0 Copyright (c) Steve Scherf et al.
# Submitted via: ExactAudioCopy v0.95a5
#
DISCID=6910de18
DTITLE=Various Artist - Little Brother Montgomery: Vocal Accompaniments and Ear
DTITLE=ly Post-War Recordings 1930-1954
DYEAR=1992
DGENRE=Blues
TTITLE0=Irene Scruggs - Good Grinding
TTITLE1=Irene Scruggs - Borrowed Love
TTITLE2=Irene Scruggs - Must Get Mine in Front
TTITLE3=Irene Scruggs - Back to the Wall
TTITLE4=Minnie Hicks - Monkey Man Blues
TTITLE5=Minnie Hicks - Sweet Rider
TTITLE6=Annie Turner - Black Pony Blues
TTITLE7=Annie Turner - Deceived Blues
TTITLE8=Annie Turner - Workhouse Blues
TTITLE9=Annie Turner - Hard on You
TTITLE10="Creole" George Guesnon - Goodbye Good Luck to You
TTITLE11=Little Brother Montgomery - El Ritmo
TTITLE12=Little Brother Montgomery - Swingin' with Lee
TTITLE13=Little Brother Montgomery - Long Time Ago
TTITLE14=Little Brother Montgomery - Woman That I Love
TTITLE15=Little Brother Montgomery - Vicksburg Blues
TTITLE16=Little Brother Montgomery - A and B Blues
TTITLE17=Little Brother Montgomery - After Hours Blues
TTITLE18=Little Brother Montgomery - Little Brother Stomp
TTITLE19=Little Brother Montgomery - Mule Face Blues
TTITLE20=Little Brother Montgomery - Cow Cow Blues
TTITLE21=Little Brother Montgomery - Vicksburg Blues
TTITLE22=Little Brother Montgomery - Crecent City Blues
TTITLE23=Little Brother Montgomery - Winding Ball Blues
EXTD=
EXTT0=
EXTT1=
EXTT2=
EXTT3=
EXTT4=
EXTT5=
EXTT6=
EXTT7=
EXTT8=
EXTT9=
EXTT10=
EXTT11=
EXTT12=
EXTT13=
EXTT14=
EXTT15=
EXTT16=
EXTT17=
EXTT18=
EXTT19=
EXTT20=
EXTT21=
EXTT22=
EXTT23=
PLAYORDER=
